<?xml version="1.0" standalone="no"?>
<!DOCTYPE svg PUBLIC "-//W3C//DTD SVG 20010904//EN"
 "http://www.w3.org/TR/2001/REC-SVG-20010904/DTD/svg10.dtd">
<svg version="1.0" xmlns="http://www.w3.org/2000/svg"
 width="640.000000pt" height="640.000000pt" viewBox="0 0 640.000000 640.000000"
 preserveAspectRatio="xMidYMid meet">
<metadata>
Created by potrace 1.16, written by Peter Selinger 2001-2019
</metadata>
<g transform="translate(0.000000,640.000000) scale(0.100000,-0.100000)"
fill="#000000" stroke="none">
<path d="M2920 6379 c-154 -13 -355 -48 -515 -89 -218 -56 -230 -61 -229 -96
1 -16 15 -57 31 -91 17 -33 33 -74 37 -90 4 -15 27 -76 51 -134 25 -59 45
-112 45 -118 0 -7 10 -33 21 -59 50 -112 57 -129 67 -162 5 -19 26 -74 46
-122 20 -48 36 -92 36 -99 0 -6 16 -45 35 -86 19 -41 38 -87 41 -102 6 -23 63
-171 70 -180 1 -1 31 6 66 17 75 25 148 39 243 47 39 3 87 8 108 11 l37 6 0
679 0 679 -47 -1 c-27 -1 -91 -5 -143 -10z"/>
<path d="M3310 5711 l0 -679 23 -5 c12 -3 58 -9 102 -12 97 -9 191 -27 268
-54 l58 -20 11 27 c6 15 23 61 38 102 66 176 94 250 125 325 18 44 38 98 45
120 7 22 23 63 35 90 13 28 32 77 43 110 11 33 35 96 54 140 19 44 38 94 42
110 4 17 21 61 38 98 16 38 35 88 42 112 l13 43 -101 31 c-217 66 -451 111
-681 131 -66 5 -128 10 -137 10 -17 0 -18 -39 -18 -679z"/>
<path d="M1860 6097 c-137 -63 -282 -144 -411 -228 -99 -65 -289 -207 -289
-216 0 -3 15 -21 33 -40 17 -19 50 -53 72 -77 22 -24 58 -63 81 -87 22 -24 83
-91 134 -149 52 -58 103 -114 114 -126 12 -11 43 -45 70 -75 27 -30 67 -74 90
-99 22 -25 84 -92 136 -150 195 -215 183 -204 211 -189 13 8 35 24 49 35 31
27 201 131 226 140 31 10 84 38 84 44 0 7 -61 173 -105 285 -15 39 -34 88 -43
110 -9 22 -24 60 -35 84 -10 24 -29 73 -42 110 -12 36 -35 98 -50 136 -15 39
-34 88 -43 110 -8 22 -26 63 -38 91 -12 28 -27 69 -33 91 -6 22 -25 71 -43
109 -17 38 -36 86 -42 106 l-12 38 -114 -53z"/>
<path d="M5324 5384 c-106 -115 -115 -124 -224 -244 -47 -51 -105 -115 -130
-141 -25 -26 -63 -67 -85 -92 -22 -24 -60 -66 -85 -93 -25 -27 -81 -89 -125
-137 -44 -49 -101 -112 -126 -140 l-47 -51 31 -38 c17 -21 34 -38 39 -38 5 0
12 -9 16 -19 4 -10 22 -36 40 -58 40 -46 71 -91 112 -159 30 -51 31 -51 63
-40 17 6 57 25 87 42 30 16 292 148 581 292 l527 263 -19 37 c-11 20 -29 51
-39 67 -11 17 -23 38 -26 48 -4 9 -10 17 -15 17 -5 0 -9 5 -9 11 0 12 -60 103
-72 107 -4 2 -8 8 -8 14 0 5 -6 15 -12 22 -7 8 -20 24 -28 36 -8 12 -22 30
-30 40 -8 10 -24 30 -34 44 -11 15 -29 37 -40 50 -12 13 -41 48 -66 77 -49 58
-171 178 -181 179 -4 0 -46 -43 -95 -96z"/>
<path d="M271 4470 c-51 -121 -107 -275 -128 -350 -44 -165 -65 -252 -84 -361
-12 -66 -19 -123 -16 -125 2 -3 72 -9 153 -14 82 -5 313 -25 514 -44 201 -20
440 -41 532 -48 l167 -13 16 70 c37 157 68 257 100 323 l22 46 -52 27 c-29 14
-70 35 -91 47 -22 11 -131 66 -244 121 -113 56 -232 115 -265 132 -33 17 -78
39 -100 50 -22 11 -60 31 -85 43 -25 13 -94 48 -155 77 -60 30 -136 68 -168
86 -33 18 -62 33 -66 33 -4 0 -26 -45 -50 -100z"/>
<path d="M5481 4244 c-332 -167 -608 -305 -613 -306 -5 -2 3 -29 17 -60 14
-31 44 -130 67 -220 22 -89 41 -164 42 -165 0 -1 80 7 176 17 96 10 225 22
285 25 61 4 232 20 380 35 149 16 326 34 395 40 69 6 127 13 129 16 8 8 -32
224 -69 369 -21 83 -56 200 -78 260 -47 132 -115 295 -122 294 -3 -1 -277
-138 -609 -305z"/>
<path d="M17 3404 c-6 -33 0 -460 8 -514 2 -19 7 -57 10 -85 6 -53 12 -97 20
-130 2 -11 7 -42 11 -70 3 -27 8 -53 10 -56 2 -4 6 -24 10 -45 3 -22 8 -41 10
-43 6 -6 138 29 288 75 77 24 146 44 154 44 8 0 78 20 154 45 77 25 147 45
156 45 10 0 53 12 97 26 44 14 121 36 170 49 165 42 310 93 309 107 -1 7 -9
57 -18 111 -10 54 -18 154 -19 221 l-2 123 -250 21 c-279 25 -995 91 -1066 99
-45 5 -46 4 -52 -23z"/>
<path d="M6100 3390 c-140 -16 -329 -34 -420 -40 -91 -6 -277 -24 -415 -38
l-250 -27 -7 -140 c-3 -77 -13 -176 -22 -219 -9 -44 -15 -80 -13 -82 7 -6 297
-94 309 -94 8 0 70 -18 138 -40 68 -22 130 -40 139 -40 9 0 72 -18 141 -40 69
-23 148 -45 175 -51 28 -5 105 -27 172 -49 67 -22 130 -40 140 -40 10 0 36 -7
58 -15 22 -8 45 -14 51 -15 13 0 45 156 69 335 18 128 31 508 21 578 -4 27
-12 47 -19 46 -7 -1 -127 -14 -267 -29z"/>
<path d="M4040 1630 c-73 -40 -238 -108 -300 -124 -36 -9 -69 -21 -74 -26 -5
-5 2 -62 17 -137 14 -70 29 -148 32 -173 4 -25 22 -121 42 -215 19 -93 41
-215 49 -270 8 -55 17 -107 19 -115 12 -40 64 -305 75 -382 9 -66 16 -88 27
-88 17 0 260 72 338 100 110 40 194 75 280 116 50 24 93 44 97 44 4 0 41 20
81 45 41 25 80 45 86 45 17 0 14 12 -21 67 -18 29 -51 82 -73 119 -22 36 -58
94 -79 128 -22 33 -49 78 -60 98 -40 72 -110 183 -127 203 -9 11 -25 37 -36
57 -23 47 -85 147 -134 220 -22 31 -39 59 -39 63 0 4 -20 38 -45 75 -25 37
-45 72 -45 77 0 11 -62 93 -70 93 -3 -1 -21 -10 -40 -20z"/>
<path d="M2300 1563 c-25 -37 -49 -76 -53 -87 -4 -11 -18 -34 -30 -51 -23 -30
-89 -137 -137 -219 -14 -24 -40 -65 -57 -90 -18 -26 -33 -50 -33 -55 0 -4 -16
-30 -36 -57 -19 -27 -39 -58 -44 -70 -4 -11 -31 -56 -59 -100 -27 -43 -65
-104 -84 -134 -18 -30 -51 -82 -72 -115 -21 -33 -48 -79 -60 -102 l-21 -41 68
-41 c38 -23 71 -41 75 -41 4 0 48 -20 98 -44 185 -91 675 -253 675 -223 0 2
12 60 26 128 14 68 31 165 39 214 7 50 29 167 48 260 20 94 39 195 42 225 4
30 20 115 36 189 16 73 36 180 44 238 8 57 17 108 19 112 3 4 -30 18 -72 30
-42 13 -93 28 -112 33 -19 6 -64 24 -100 41 -71 32 -150 67 -154 67 -1 0 -22
-30 -46 -67z"/>
</g>
</svg>
